<?xml version="1.0" encoding="UTF-8"?>
<svg xmlns="http://www.w3.org/2000/svg" xmlns:xlink="http://www.w3.org/1999/xlink" viewBox="0 0 32 32" width="32px" height="32px">
<g id="surface72573615">
<rect x="0" y="0" width="32" height="32" style="fill:rgb(86.666667%,86.666667%,86.666667%);fill-opacity:0.01961;stroke:none;"/>
<path style=" stroke:none;fill-rule:nonzero;fill:rgb(100%,100%,100%);fill-opacity:1;" d="M 18.460938 1.359375 C 16.273438 1.359375 14.417969 2.035156 13.167969 3.394531 C 11.917969 4.75 11.332031 6.6875 11.332031 9 L 11.332031 11.332031 L 9.011719 11.332031 C 7.726562 11.332031 6.664062 12.402344 6.679688 13.6875 L 6.699219 15.691406 C 6.714844 16.960938 7.765625 18.003906 9.035156 18.003906 L 11.332031 18 L 11.332031 29 C 11.332031 30.277344 12.390625 31.332031 13.667969 31.332031 L 16.332031 31.332031 C 17.609375 31.332031 18.667969 30.277344 18.667969 29 L 18.667969 18 L 20.730469 18 C 21.90625 18 22.910156 17.105469 23.046875 15.9375 L 23.28125 13.9375 C 23.441406 12.566406 22.34375 11.332031 20.964844 11.332031 L 18.679688 11.332031 L 18.707031 9.140625 C 18.707031 9.136719 18.707031 9.132812 18.707031 9.128906 C 18.707031 8.671875 19.054688 8.324219 19.511719 8.324219 L 21.453125 8.324219 C 22.492188 8.324219 23.355469 7.460938 23.355469 6.421875 L 23.355469 3.375 C 23.355469 2.398438 22.59375 1.566406 21.621094 1.480469 C 21.429688 1.460938 20.117188 1.359375 18.460938 1.359375 Z M 18.460938 3.359375 C 19.976562 3.359375 21.34375 3.46875 21.355469 3.46875 L 21.355469 6.324219 L 19.511719 6.324219 C 17.976562 6.324219 16.707031 7.589844 16.707031 9.128906 L 16.667969 12.320312 C 16.664062 12.585938 16.765625 12.84375 16.953125 13.035156 C 17.144531 13.226562 17.398438 13.332031 17.667969 13.332031 L 20.964844 13.332031 C 21.179688 13.332031 21.320312 13.492188 21.292969 13.707031 L 21.0625 15.703125 C 21.042969 15.882812 20.90625 16 20.730469 16 L 17.667969 16 C 17.113281 16 16.667969 16.449219 16.667969 17 L 16.667969 29 C 16.667969 29.195312 16.53125 29.332031 16.332031 29.332031 L 13.667969 29.332031 C 13.46875 29.332031 13.332031 29.195312 13.332031 29 L 13.332031 17 C 13.332031 16.449219 12.886719 16 12.332031 16 L 9.03125 16.003906 C 8.839844 16.003906 8.703125 15.867188 8.699219 15.671875 L 8.679688 13.667969 C 8.675781 13.472656 8.8125 13.332031 9.011719 13.332031 L 12.332031 13.332031 C 12.882812 13.332031 13.332031 12.886719 13.332031 12.332031 L 13.332031 9 C 13.332031 7.023438 13.820312 5.640625 14.640625 4.75 C 15.460938 3.859375 16.667969 3.359375 18.460938 3.359375 Z M 18.460938 3.359375 "/>
</g>
</svg>
