<?xml version="1.0" encoding="UTF-8"?>
<svg xmlns="http://www.w3.org/2000/svg" xmlns:xlink="http://www.w3.org/1999/xlink" viewBox="0 0 32 32" width="32px" height="32px">
<g id="surface89961081">
<rect x="0" y="0" width="32" height="32" style="fill:rgb(86.666667%,86.666667%,86.666667%);fill-opacity:0.05882;stroke:none;"/>
<path style=" stroke:none;fill-rule:nonzero;fill:rgb(100%,100%,100%);fill-opacity:1;" d="M 11 3.332031 C 6.777344 3.332031 3.332031 6.777344 3.332031 11 L 3.332031 21 C 3.332031 25.222656 6.777344 28.667969 11 28.667969 L 21 28.667969 C 25.222656 28.667969 28.667969 25.222656 28.667969 21 L 28.667969 11 C 28.667969 6.777344 25.222656 3.332031 21 3.332031 Z M 11 5.332031 L 21 5.332031 C 24.140625 5.332031 26.667969 7.859375 26.667969 11 L 26.667969 21 C 26.667969 24.140625 24.140625 26.667969 21 26.667969 L 11 26.667969 C 7.859375 26.667969 5.332031 24.140625 5.332031 21 L 5.332031 11 C 5.332031 7.859375 7.859375 5.332031 11 5.332031 Z M 22.667969 8 C 21.929688 8 21.332031 8.597656 21.332031 9.332031 C 21.332031 10.070312 21.929688 10.667969 22.667969 10.667969 C 23.402344 10.667969 24 10.070312 24 9.332031 C 24 8.597656 23.402344 8 22.667969 8 Z M 16 9.332031 C 12.332031 9.332031 9.332031 12.332031 9.332031 16 C 9.332031 19.667969 12.332031 22.667969 16 22.667969 C 19.667969 22.667969 22.667969 19.667969 22.667969 16 C 22.667969 12.332031 19.667969 9.332031 16 9.332031 Z M 16 11.332031 C 18.589844 11.332031 20.667969 13.410156 20.667969 16 C 20.667969 18.589844 18.589844 20.667969 16 20.667969 C 13.410156 20.667969 11.332031 18.589844 11.332031 16 C 11.332031 13.410156 13.410156 11.332031 16 11.332031 Z M 16 11.332031 "/>
</g>
</svg>
