<?xml version="1.0" encoding="UTF-8"?>
<svg xmlns="http://www.w3.org/2000/svg" xmlns:xlink="http://www.w3.org/1999/xlink" viewBox="0 0 32 32" width="32px" height="32px">
<g id="surface89894845">
<path style=" stroke:none;fill-rule:nonzero;fill:rgb(100%,98.039216%,98.039216%);fill-opacity:1;" d="M 15.90625 5.667969 C 11.667969 5.667969 7.734375 5.96875 5.488281 6.4375 C 5.484375 6.4375 5.480469 6.441406 5.476562 6.441406 C 3.785156 6.820312 2.191406 8.03125 1.855469 9.929688 C 1.855469 9.933594 1.855469 9.933594 1.855469 9.9375 C 1.597656 11.46875 1.332031 13.460938 1.332031 16.332031 C 1.332031 19.199219 1.597656 21.140625 1.921875 22.75 C 2.265625 24.59375 3.824219 25.839844 5.539062 26.226562 C 5.546875 26.226562 5.558594 26.230469 5.566406 26.230469 C 7.910156 26.695312 11.730469 27 15.96875 27 C 20.203125 27 24.027344 26.695312 26.371094 26.230469 C 26.378906 26.230469 26.390625 26.226562 26.398438 26.226562 C 28.089844 25.847656 29.679688 24.632812 30.015625 22.738281 C 30.019531 22.730469 30.019531 22.726562 30.019531 22.722656 C 30.273438 21.160156 30.601562 19.171875 30.667969 16.292969 C 30.667969 16.285156 30.667969 16.277344 30.667969 16.269531 C 30.667969 13.390625 30.335938 11.386719 30.015625 9.796875 C 29.675781 7.953125 28.117188 6.699219 26.398438 6.316406 C 26.371094 6.308594 26.34375 6.304688 26.316406 6.300781 C 24.03125 5.980469 20.140625 5.667969 15.90625 5.667969 Z M 15.90625 7.667969 C 20.011719 7.667969 23.816406 7.972656 25.976562 8.273438 C 27.039062 8.519531 27.882812 9.261719 28.050781 10.160156 C 28.050781 10.164062 28.050781 10.171875 28.050781 10.175781 C 28.363281 11.707031 28.664062 13.527344 28.664062 16.257812 C 28.601562 18.992188 28.300781 20.828125 28.046875 22.390625 C 27.875 23.363281 27.0625 24.023438 25.96875 24.269531 C 23.871094 24.683594 20.09375 25 15.96875 25 C 11.839844 25 8.066406 24.679688 5.96875 24.269531 C 4.902344 24.027344 4.054688 23.285156 3.886719 22.382812 C 3.886719 22.375 3.886719 22.371094 3.882812 22.363281 C 3.578125 20.851562 3.332031 19.085938 3.332031 16.332031 C 3.332031 13.585938 3.578125 11.746094 3.824219 10.277344 C 3.996094 9.304688 4.8125 8.640625 5.90625 8.394531 C 7.847656 7.988281 11.773438 7.667969 15.90625 7.667969 Z M 13.640625 10.683594 C 12.445312 10.722656 11.332031 11.683594 11.332031 12.992188 L 11.332031 19.011719 C 11.332031 20.753906 13.3125 21.882812 14.824219 21.027344 L 20.152344 18.019531 C 21.679688 17.15625 21.679688 14.84375 20.152344 13.980469 L 14.824219 10.972656 C 14.445312 10.757812 14.039062 10.667969 13.640625 10.683594 Z M 13.648438 12.652344 C 13.707031 12.65625 13.773438 12.675781 13.839844 12.714844 L 19.167969 15.722656 C 19.4375 15.875 19.4375 16.125 19.167969 16.277344 L 13.839844 19.285156 C 13.574219 19.4375 13.332031 19.296875 13.332031 19.011719 L 13.332031 12.992188 C 13.332031 12.847656 13.394531 12.742188 13.488281 12.6875 C 13.535156 12.664062 13.589844 12.648438 13.648438 12.652344 Z M 13.648438 12.652344 "/>
</g>
</svg>
